<?xml version="1.0" encoding="utf-8"?>
<!-- Generator: Adobe Illustrator 27.3.1, SVG Export Plug-In . SVG Version: 6.00 Build 0)  -->
<svg version="1.1" id="Layer_1" xmlns="http://www.w3.org/2000/svg" xmlns:xlink="http://www.w3.org/1999/xlink" x="0px" y="0px"
	 viewBox="0 0 679.44 478.35" style="enable-background:new 0 0 679.44 478.35;" xml:space="preserve">
<style type="text/css">
	.st0{fill:#111047;}
	.st1{fill:#F9D700;}
	.st2{fill:url(#SVGID_1_);}
	.st3{fill:url(#SVGID_00000091002514870138906690000015279881348601942665_);}
	.st4{fill:url(#SVGID_00000008867919074780789960000000590828319431405194_);}
	.st5{fill:url(#SVGID_00000170239331938470621900000003868891485686124929_);}
	.st6{fill:url(#SVGID_00000181082145339455095170000000830527583944985517_);}
	.st7{fill:url(#SVGID_00000094586679741168031800000005806403437140945325_);}
	.st8{fill:url(#SVGID_00000078723365517356270390000009495180445670686598_);}
	.st9{fill:url(#SVGID_00000079458584090536928800000005208416876799602359_);}
	.st10{fill:url(#SVGID_00000047782901607555858000000009037141574878023828_);}
	.st11{fill:url(#SVGID_00000176730655968274128320000018004799866229747646_);}
	.st12{fill:url(#SVGID_00000011012759992504254980000001892019989939868078_);}
	.st13{fill:url(#SVGID_00000004540442507257248460000009518155997938379697_);}
	.st14{fill:url(#SVGID_00000047777428829738942660000005060893516053680782_);}
	.st15{fill:url(#SVGID_00000171683264502992442860000003420669243861503158_);}
	.st16{fill:url(#SVGID_00000140706174592805785860000011050720828562630577_);}
	.st17{fill:url(#SVGID_00000034768496599649865590000011611122411051038601_);}
	.st18{fill:#FFFFFF;}
	.st19{fill:url(#SVGID_00000151520316720038597180000001717970488579688868_);}
	.st20{fill:url(#SVGID_00000163055035008291497770000016833995336361483454_);}
	.st21{fill:url(#SVGID_00000031915616428504516930000015622451116081187489_);}
	.st22{fill:url(#SVGID_00000178925739885111328640000012749613276656936353_);}
	.st23{fill:url(#SVGID_00000060021612457236013100000007151953003863199905_);}
	.st24{fill:url(#SVGID_00000045600691742044930500000017438161205163297700_);}
	.st25{fill:url(#SVGID_00000165229320654578587430000009649009694802156982_);}
	.st26{fill:url(#SVGID_00000084509009707998193850000012101544501921143694_);}
	.st27{fill:url(#SVGID_00000137114029915563084990000007870374217741930170_);}
	.st28{fill:url(#SVGID_00000174562779856051013030000013042433600788051348_);}
	.st29{fill:url(#SVGID_00000160156270772896112400000007628939318504631230_);}
	.st30{fill:url(#SVGID_00000096019353281699655210000001876306599500099216_);}
	.st31{fill:url(#SVGID_00000103232113222587452100000010497386580697655231_);}
	.st32{fill:url(#SVGID_00000005253578126709122400000008808133967393011079_);}
	.st33{fill:url(#SVGID_00000134240904535004910440000003663223650410881706_);}
	.st34{fill:url(#SVGID_00000008118011565740825140000005927460390620140213_);}
	.st35{fill:url(#SVGID_00000055696607273612577440000013929366196794037647_);}
	.st36{fill:url(#SVGID_00000132768787207747424820000007390628343297642147_);}
	.st37{fill:url(#SVGID_00000077318919854018238440000001669163123220702655_);}
	.st38{fill:url(#SVGID_00000070115472293225229020000000004899724705399207_);}
	.st39{fill:url(#SVGID_00000155133488492754111240000004072694911365852317_);}
	.st40{fill:url(#SVGID_00000179635051182224110390000002732677137024231864_);}
</style>
<g>
	<path class="st0" d="M220.72,392.22v-68.73h49.6c8.79,0,14.55,0.07,17.27,0.2c2.72,0.13,5.55,0.5,8.51,1.11
		c6.88,1.41,11.36,5.3,13.44,11.68c0.77,2.42,1.29,5.01,1.56,7.78c0.27,2.77,0.4,6.96,0.4,12.56c0,6.14-0.16,10.79-0.48,13.95
		c-0.32,3.16-0.91,6.03-1.79,8.61c-2.05,6.04-6.26,9.77-12.64,11.18c-2.99,0.67-6.18,1.12-9.57,1.33
		c-3.39,0.22-8.95,0.33-16.67,0.33H220.72z M241.37,374.7h29.15c5.37,0,9.32-0.18,11.86-0.53c2.53-0.35,4.32-0.96,5.36-1.84
		c1.14-0.97,1.95-2.52,2.42-4.63c0.47-2.11,0.7-5.3,0.7-9.57c0-4.26-0.2-7.47-0.6-9.62c-0.4-2.15-1.11-3.79-2.11-4.93
		c-1.14-1.24-2.79-2.04-4.96-2.39c-2.17-0.35-6.45-0.53-12.86-0.53h-28.95V374.7z M328.01,323.49h22v68.73h-22V323.49z
		 M477.64,323.49h36.71l36,51.26h2.17l-0.5-51.26h21.3v68.73h-36.4l-36.15-51.26h-2.27l0.45,51.26h-21.3V323.49z M586.34,323.49
		h83.18v17.52h-30.56v51.21h-22v-51.21h-30.61V323.49z M173.4,323.49h-32.53l-36.45,68.73h23.92l26.59-52.72h4.18l13.24,26.03
		h-23.09l-7.56,15.05h38l5.89,11.63h23.77L173.4,323.49z M430.32,323.49h-32.53l-36.45,68.73h23.92l26.59-52.72h4.18l13.24,26.03
		h-23.09l-7.56,15.05h38l5.89,11.63h23.77L430.32,323.49z M92.19,369.36c-1.91-2.18-5.07-3.44-9.47-3.78
		c3.73-0.57,6.51-1.61,8.36-3.12c1.71-1.41,2.88-3.29,3.5-5.64c0.62-2.35,0.93-6.02,0.93-11.03c0-5.94-0.49-10.3-1.46-13.07
		c-0.97-2.77-2.77-4.94-5.39-6.52c-2.18-1.34-4.45-2.12-6.8-2.34c-2.35-0.22-9.47-0.34-21.35-0.38H9.92v68.73h20.95v-17.16v-0.31
		v-17.17v-1.76v-15.16h29.41c4.83,0.03,7.76,0.08,8.79,0.15c1.02,0.07,1.9,0.27,2.64,0.6c1.04,0.5,1.77,1.31,2.19,2.42
		c0.42,1.11,0.63,2.79,0.63,5.03c0,2.28-0.19,3.99-0.55,5.11c-0.37,1.12-1.01,1.97-1.91,2.54c-0.7,0.44-1.55,0.7-2.54,0.78
		c-0.99,0.08-4.05,0.18-9.19,0.28H39.64l-8.62,17.17h29.35c4.33,0,7.17,0.11,8.53,0.33c1.36,0.22,2.42,0.73,3.2,1.54
		c0.77,0.87,1.3,2.12,1.59,3.75c0.28,1.63,0.43,4.36,0.43,8.18v3.68h20.64v-6.39c0-5.94-0.15-9.84-0.45-11.71
		C94,372.25,93.3,370.67,92.19,369.36z"/>
	<g>
		<path class="st1" d="M135.59,446.56c8.73,0,14.23,0.51,16.49,1.54c2.82,1.27,4.23,4.34,4.23,9.2c0,4.6-1.7,7.61-5.1,9.04
			c-2.78,1.17-8.41,1.76-16.88,1.76c-9.17,0-15.07-1-17.7-3.01c-2-1.53-3.01-4.88-3.01-10.03h5.59c0,3.54,0.78,5.75,2.35,6.64
			c1.57,0.91,5.84,1.36,12.81,1.36c6.83,0,11.27-0.33,13.32-0.99c2.01-0.65,3.01-2.24,3.01-4.76c0-2.56-0.75-4.15-2.25-4.76
			c-1.53-0.62-5.83-0.94-12.88-0.94c-8.61,0-14.4-1.04-17.36-3.12c-2.27-1.57-3.4-4.41-3.4-8.49c0-4.42,1.37-7.29,4.11-8.6
			c2.7-1.28,8.25-1.92,16.65-1.92c8.36,0,13.86,1.01,16.49,3.02c2.09,1.61,3.13,4.74,3.13,9.42h-5.48c0-3.21-0.82-5.23-2.47-6.08
			c-1.65-0.84-5.53-1.27-11.67-1.27c-5.25,0-8.48,0.08-9.7,0.23c-3.65,0.44-5.47,2.17-5.47,5.2c0,2.55,0.98,4.29,2.96,5.2
			C125.35,446.1,129.42,446.56,135.59,446.56z"/>
		<path class="st1" d="M177.14,430.07h35.89v5.04h-30.3v10.9h29.25v5.05h-29.25v11.45h30.3v5.04h-35.89V430.07z"/>
		<path class="st1" d="M240.15,448.86c0,6.83,0.73,10.9,2.19,12.22c1.46,1.31,5.93,1.96,13.42,1.96c6.98,0,11.24-0.38,12.77-1.15
			c1.78-0.91,2.68-3.37,2.68-7.4h5.59c0,5.95-1.22,9.7-3.66,11.24c-2.49,1.57-8.28,2.35-17.38,2.35c-9.24,0-15.09-1.1-17.54-3.29
			c-2.44-2.19-3.67-7.51-3.67-15.94c0-8.47,1.22-13.82,3.67-16.05c2.42-2.19,8.26-3.29,17.54-3.29c9.13,0,14.92,0.77,17.37,2.3
			c2.45,1.53,3.67,5.29,3.67,11.29h-5.59c0-4.01-0.82-6.44-2.46-7.29c-1.64-0.8-5.97-1.2-12.99-1.2c-7.53,0-12,0.64-13.42,1.92
			C240.88,437.85,240.15,441.96,240.15,448.86z"/>
		<path class="st1" d="M305.6,456.64c0,2.92,0.82,4.72,2.46,5.37c1.61,0.7,5.93,1.04,12.93,1.04c7.09,0,11.44-0.35,13.04-1.04
			c1.6-0.65,2.41-2.44,2.41-5.37v-26.58h5.59v26.58c0,5.15-1.02,8.31-3.06,9.49c-2.27,1.31-8.26,1.97-17.98,1.97
			c-9.68,0-15.59-0.62-17.75-1.86c-2.16-1.25-3.24-4.45-3.24-9.59v-26.58h5.59V456.64z"/>
		<path class="st1" d="M399.16,430.07c3.18,0,5.62,1.08,7.34,3.23c1.71,2.19,2.57,5.1,2.57,8.71c0,3.1-0.49,5.42-1.48,6.95
			c-0.7,1.1-1.81,1.98-3.35,2.64c1.36,0.55,2.42,1.27,3.19,2.14c1.09,1.24,1.64,2.77,1.64,4.6v9.2h-5.54v-9.2
			c0-1.24-0.58-2.28-1.75-3.13c-1.2-0.8-2.65-1.21-4.33-1.21h-26.34v13.54h-5.59v-37.48H399.16z M371.11,448.91h25.79
			c2.05,0,3.57-0.37,4.55-1.1c1.39-1.02,2.09-2.95,2.09-5.81c0-2.84-0.71-4.8-2.14-5.86c-0.95-0.7-2.44-1.04-4.49-1.04h-25.79
			V448.91z"/>
		<path class="st1" d="M434.9,467.55h-5.59v-37.48h5.59V467.55z"/>
		<path class="st1" d="M455.91,430.07h39.18v5.04h-16.77v32.44h-5.59v-32.44h-16.81V430.07z"/>
		<path class="st1" d="M558.3,430.07h7.5l-22.19,22.47v15.01h-5.64v-15.01l-22.12-22.47h7.5l17.48,17.82L558.3,430.07z"/>
	</g>
	<g>
		<linearGradient id="SVGID_1_" gradientUnits="userSpaceOnUse" x1="236.9677" y1="181.1326" x2="483.0694" y2="78.044">
			<stop  offset="0" style="stop-color:#111047"/>
			<stop  offset="1" style="stop-color:#2124BA"/>
		</linearGradient>
		<path class="st2" d="M472.68,57.21c-0.18,5.26-0.52,10.47-1.01,15.66c-0.13,1.38-0.26,2.77-0.42,4.14c0,0,0.01,0.01,0,0.03
			c-0.15,1.37-0.3,2.74-0.48,4.1c-0.14,1.13-0.28,2.25-0.43,3.37c-0.05,0.38-0.1,0.75-0.16,1.13c-0.16,1.23-0.35,2.47-0.54,3.7
			c-0.15,1.02-0.31,2.04-0.49,3.06c-0.4,2.47-0.84,4.91-1.31,7.35c-0.18,0.83-0.34,1.65-0.5,2.48
			c-15.42,76.18-62.31,141.71-127.35,181.29h-0.01C270.23,241.06,221.32,168.76,209.76,85.5c-0.05-0.33-0.09-0.67-0.14-0.99
			c-0.15-1.12-0.3-2.24-0.43-3.37c-0.18-1.36-0.33-2.73-0.48-4.1c0,0,0-0.01,0-0.03c-0.15-1.37-0.29-2.75-0.42-4.14h0.01
			c-0.48-5.18-0.83-10.4-1.02-15.65c36.24-29.37,82.42-46.97,132.7-46.97C390.27,10.25,436.44,27.85,472.68,57.21z"/>
		
			<linearGradient id="SVGID_00000065044778473461557980000014793055422313622959_" gradientUnits="userSpaceOnUse" x1="295.7869" y1="130.6629" x2="335.7449" y2="130.6629">
			<stop  offset="0" style="stop-color:#FF9900"/>
			<stop  offset="1" style="stop-color:#FDEE07"/>
		</linearGradient>
		<path style="fill:url(#SVGID_00000065044778473461557980000014793055422313622959_);" d="M335.74,163.44
			c-44.2-44.86-15.42-65.56-15.42-65.56C272.49,102.52,303.91,143.1,335.74,163.44z"/>
		
			<linearGradient id="SVGID_00000163053909096584387540000009013868280891416710_" gradientUnits="userSpaceOnUse" x1="295.787" y1="130.6629" x2="335.7449" y2="130.6629">
			<stop  offset="0" style="stop-color:#FF9900"/>
			<stop  offset="1" style="stop-color:#FDEE07"/>
		</linearGradient>
		<path style="fill:url(#SVGID_00000163053909096584387540000009013868280891416710_);" d="M319.76,98.34
			c0.36-0.31,0.57-0.46,0.57-0.46c-47.84,4.64-16.42,45.22,15.42,65.56c-2.14-2.17-4.11-4.29-5.92-6.35
			C302.61,136.3,281.52,104.09,319.76,98.34z"/>
		
			<linearGradient id="SVGID_00000004531887280568956470000017321257215889403815_" gradientUnits="userSpaceOnUse" x1="336.9328" y1="200.8084" x2="396.3048" y2="200.8084">
			<stop  offset="0" style="stop-color:#FF9900"/>
			<stop  offset="1" style="stop-color:#FDEE07"/>
		</linearGradient>
		<path style="fill:url(#SVGID_00000004531887280568956470000017321257215889403815_);" d="M396.28,199.65
			c-19.8-9.09-39.14,21.42-59.35-15.87c2.91,26.55,15.04,34.06,35.99,34.06C385.9,217.84,396.85,211.38,396.28,199.65z"/>
		
			<linearGradient id="SVGID_00000127045124003010607880000004491215558361415055_" gradientUnits="userSpaceOnUse" x1="336.9328" y1="200.8084" x2="394.544" y2="200.8084">
			<stop  offset="0" style="stop-color:#FF9900"/>
			<stop  offset="1" style="stop-color:#FDEE07"/>
		</linearGradient>
		<path style="fill:url(#SVGID_00000127045124003010607880000004491215558361415055_);" d="M373.83,216.36
			c-19.85,0-31.77-6.76-35.45-30.04c-0.48-0.81-0.96-1.65-1.44-2.54c2.91,26.55,15.04,34.06,35.99,34.06
			c9.6,0,18.08-3.54,21.62-10.14C390.59,213.34,382.68,216.36,373.83,216.36z"/>
		
			<linearGradient id="SVGID_00000154419312777404448290000006119216128894500227_" gradientUnits="userSpaceOnUse" x1="358.3564" y1="167.5313" x2="419.7756" y2="167.5313">
			<stop  offset="0" style="stop-color:#FF9900"/>
			<stop  offset="1" style="stop-color:#FDEE07"/>
		</linearGradient>
		<path style="fill:url(#SVGID_00000154419312777404448290000006119216128894500227_);" d="M404.44,163.72
			c10.59-2.24,16.13-10.69,15.24-17.95c-2.94,0.08-5.84-1.29-7.88-4.33c-9.93,6.32-23.99,6.41-36.24,4.33c0,0,1.14,12.33-4.77,20.65
			c0,0,10.68-2.48,15.06-17.16l3.11,3.24c0,0,11.12-6.67,25.67-3.24C409.08,151.32,409.81,159.17,404.44,163.72z M399.3,176.47
			c0,0-5.69,5.64-2.34,6.65c-4.64,3.44-17.84,2.41-22.1-0.33c0,0-2.63,3.49-5.6,5.17c0,0,1.29-6.69,0.14-12.46
			c0,0-4.75,8.27-10.14,13.14c-1.13,1.02-1.21,2.77-0.24,3.94c0.71,0.86,1.86,1.24,2.94,0.96c12.42-3.2,23.54-8.08,34.33-3.22
			C396.3,190.32,401.45,185.94,399.3,176.47z"/>
		<g>
			
				<linearGradient id="SVGID_00000139984522152019326150000003452911498506018701_" gradientUnits="userSpaceOnUse" x1="370.7938" y1="156.5564" x2="415.0409" y2="156.5564">
				<stop  offset="0" style="stop-color:#FF9900"/>
				<stop  offset="1" style="stop-color:#FDEE07"/>
			</linearGradient>
			<path style="fill:url(#SVGID_00000139984522152019326150000003452911498506018701_);" d="M385.85,149.26l3.11,3.24
				c0,0,10.29-6.14,24.01-3.57c0.58-0.52,1.25-0.96,2.06-1.26c-14.55-3.43-25.67,3.24-25.67,3.24l-3.11-3.24
				c-3.7,12.39-11.86,16.08-14.32,16.93c-0.35,0.62-0.72,1.23-1.14,1.82C370.79,166.42,381.47,163.94,385.85,149.26z"/>
			
				<linearGradient id="SVGID_00000129892981107312644650000003358103978449000585_" gradientUnits="userSpaceOnUse" x1="404.4414" y1="156.7813" x2="419.5261" y2="156.7813">
				<stop  offset="0" style="stop-color:#FF9900"/>
				<stop  offset="1" style="stop-color:#FDEE07"/>
			</linearGradient>
			<path style="fill:url(#SVGID_00000129892981107312644650000003358103978449000585_);" d="M406.27,161.77
				c-0.52,0.69-1.12,1.35-1.83,1.95c8.64-1.83,13.92-7.8,15.08-13.87C417.92,155,413.34,159.81,406.27,161.77z"/>
			
				<linearGradient id="SVGID_00000138537927238978219610000007969516777508065943_" gradientUnits="userSpaceOnUse" x1="374.6851" y1="151.4774" x2="376.0468" y2="151.4774">
				<stop  offset="0" style="stop-color:#FF9900"/>
				<stop  offset="1" style="stop-color:#FDEE07"/>
			</linearGradient>
			<path style="fill:url(#SVGID_00000138537927238978219610000007969516777508065943_);" d="M374.69,157.19
				c1.28-4.6,1.4-9.04,1.35-11.35c-0.16-0.03-0.32-0.05-0.48-0.07C375.56,145.77,376.05,151.14,374.69,157.19z"/>
			
				<linearGradient id="SVGID_00000093174926628584803040000010856542626665276308_" gradientUnits="userSpaceOnUse" x1="395.9188" y1="181.3401" x2="397.3572" y2="181.3401">
				<stop  offset="0" style="stop-color:#FF9900"/>
				<stop  offset="1" style="stop-color:#FDEE07"/>
			</linearGradient>
			<path style="fill:url(#SVGID_00000093174926628584803040000010856542626665276308_);" d="M396,182.3
				c0.5-0.23,0.97-0.47,1.36-0.76c-0.7-0.21-0.99-0.63-1.03-1.15C395.97,181.1,395.81,181.77,396,182.3z"/>
			
				<linearGradient id="SVGID_00000181800376053057727420000018186730459597878961_" gradientUnits="userSpaceOnUse" x1="358.3636" y1="188.7451" x2="399.5618" y2="188.7451">
				<stop  offset="0" style="stop-color:#FF9900"/>
				<stop  offset="1" style="stop-color:#FDEE07"/>
			</linearGradient>
			<path style="fill:url(#SVGID_00000181800376053057727420000018186730459597878961_);" d="M396.71,188.74
				c-10.79-4.87-21.92,0.01-34.33,3.22c-1.08,0.28-2.23-0.1-2.94-0.97c-0.42-0.51-0.63-1.12-0.66-1.73
				c-0.61,1.02-0.54,2.36,0.26,3.32c0.71,0.86,1.86,1.24,2.94,0.96c12.42-3.2,23.54-8.08,34.33-3.22c0,0,2.44-2.08,3.26-6.46
				C398.54,187.15,396.71,188.74,396.71,188.74z"/>
		</g>
		
			<linearGradient id="SVGID_00000157283875731136457160000010281737358493692572_" gradientUnits="userSpaceOnUse" x1="418.9788" y1="124.6147" x2="435.8441" y2="124.6147">
			<stop  offset="0" style="stop-color:#FF9900"/>
			<stop  offset="1" style="stop-color:#FDEE07"/>
		</linearGradient>
		<path style="fill:url(#SVGID_00000157283875731136457160000010281737358493692572_);" d="M435.8,119.13
			c-2.44,4.56-7.32,5.39-7.32,5.39c3.21-6.04,1.54-12.71,1.54-12.71c-3.66,6.87-10.24,7.58-10.92,17.21
			c-1.27,7.76,7.13,11.37,13.16,5.46c-3.15,0.39-5.14-1.54-5.14-1.54C436.96,128.57,435.8,119.13,435.8,119.13z"/>
		
			<linearGradient id="SVGID_00000021841185517592995970000015589239014796587649_" gradientUnits="userSpaceOnUse" x1="404.3344" y1="3.7527" x2="240.4541" y2="238.1056">
			<stop  offset="0" style="stop-color:#FDEE07"/>
			<stop  offset="1" style="stop-color:#FF9900"/>
		</linearGradient>
		<path style="fill:url(#SVGID_00000021841185517592995970000015589239014796587649_);" d="M464.56,114.63
			c-17.8,70.86-63.07,131.45-124.56,168.88c-1.21-0.74-2.4-1.51-3.59-2.27c0,0,0.01,0.01,0.01,0.01c-0.03-0.02-0.05-0.03-0.08-0.05
			c-3.67-2.31-7.3-4.68-10.84-7.16c0.02-0.01,0.04-0.02,0.06-0.04c-41.72-29.12-74.71-69.26-95.15-115.75
			c24.83-19.73,48.28-29.11,48.28-29.11c-4.9,37.93,48.22,69.81,48.22,69.81s-36.27-9.51-49.75-26.82c0,0-3.44,55,49.55,101.23
			C389.28,238.63,438.6,182.58,464.56,114.63z M273.18,108.73c-12.23-3.25-26.94-13.35-26.94-13.35s-5.13,1.87-12.75,5.21
			c-1.6-10.51-2.62-21.18-2.99-31.98c34.88-28.09,78.84-45.36,126.8-46.67c1.94-0.04,3.88-0.08,5.82-0.08c0.03,0,0.05,0,0.08,0
			c1.91,0,3.81,0.04,5.72,0.08c27.27,0.72,53.24,6.61,77,16.71c-29.61-17.14-63.75-27.34-100.19-28.31
			c-1.91-0.04-3.81-0.08-5.72-0.08c-0.03,0-0.05,0-0.08,0c-1.94,0-3.88,0.05-5.82,0.08c-47.96,1.31-91.92,18.58-126.8,46.67
			c0.62,18.03,3.04,35.69,7.03,52.81c-0.01,0.01-0.02,0.01-0.03,0.02c0.35,1.5,0.74,3,1.11,4.49c0.12,0.48,0.24,0.97,0.36,1.46
			c0.57,2.21,1.17,4.4,1.79,6.59c0.1,0.35,0.19,0.71,0.29,1.07l0.01,0c1.43,4.95,2.98,9.86,4.68,14.7
			C245.04,121.92,273.18,108.73,273.18,108.73z"/>
		
			<linearGradient id="SVGID_00000094590713584923130350000000386656913107664274_" gradientUnits="userSpaceOnUse" x1="328.0403" y1="105.2859" x2="395.8355" y2="51.2616">
			<stop  offset="0" style="stop-color:#FF9900"/>
			<stop  offset="1" style="stop-color:#FDEE07"/>
		</linearGradient>
		<path style="fill:url(#SVGID_00000094590713584923130350000000386656913107664274_);" d="M314.85,77.16
			c11.6-6.86,23.26-8.07,34.99-1.94l-3.05-7.46c11.45,2.15,21.43,6.27,29.57,12.88c0.31-2.13,0.62-4.25,2.03-4.66
			c5.7,6.4,11.92,12.31,18.58,17.84c-9.01-0.27-18.18,1.98-26.19,5.92c0,0,1.29,9.95,15.65,14.92c-15.06,4.1-29.98,0.82-40.93-8.37
			c0,0,2.51,19.07,41.22,19.79c-4.84,8.57-25.58,7.72-35.62,0c10.09,14.2,36.33,17.61,50.56,12.7c4.45-1.53,8.11-4.97,9.75-9.38
			c4.55-12.21-13.14-13.76-17.39-26.73c10.45,4.1,20.43,5.13,29.73,1.73c-4.86-4.51-10.42-7.41-16.28-9.03
			c2.06-1.63,4.77-2.64,8.03-3.12c-1.12-2.43-1.95-4.86-2.37-7.29c4.4,0.49,8.92,1.56,13.56,3.13
			c-8.97-9.68-19.26-16.88-31.35-20.67c2.25,2.5,3.98,5.25,5.4,8.15c-24.3-20.73-67.44-25.83-96.76-14.89l8.8,1.37
			c-19.02,11.29-42.99,15.84-69.27,17.24c0,0,8.81,12.36,42.79,16.09c-7.65-2.97-13.77-6.57-16.18-11.69
			c15.73-2.44,31.29-7.62,46.69-15.17L314.85,77.16z"/>
		
			<linearGradient id="SVGID_00000101785500678119858970000007107189985120036284_" gradientUnits="userSpaceOnUse" x1="332.0088" y1="90.2996" x2="362.6314" y2="90.2996">
			<stop  offset="0" style="stop-color:#FF9900"/>
			<stop  offset="1" style="stop-color:#FDEE07"/>
		</linearGradient>
		<path style="fill:url(#SVGID_00000101785500678119858970000007107189985120036284_);" d="M348.14,83.26
			c-8.68-0.24-15.52,1.64-16.13,10.68c0,0,12.9,6.87,30.62,1.15C362.63,95.09,351.06,91.54,348.14,83.26z"/>
		
			<linearGradient id="SVGID_00000000206051397478450890000004941042018184671384_" gradientUnits="userSpaceOnUse" x1="332.0089" y1="90.4974" x2="359.6234" y2="90.4974">
			<stop  offset="0" style="stop-color:#FF9900"/>
			<stop  offset="1" style="stop-color:#FDEE07"/>
		</linearGradient>
		<path style="fill:url(#SVGID_00000000206051397478450890000004941042018184671384_);" d="M333.7,93.56
			c0.4-5.87,3.43-8.71,7.87-9.92c-5.36,0.94-9.11,3.71-9.56,10.3c0,0,11.46,6.09,27.61,2.01C344.37,99.2,333.7,93.56,333.7,93.56z"
			/>
		<path class="st18" d="M359.05,81.35c0,0-1.07,7.21,11.74,7.33C367.66,85.4,363.75,82.95,359.05,81.35z"/>
		<path class="st18" d="M425.64,99.2c0,0,1.65-1.23,1.49-3.51c0,0-4.34-0.35-5.95,0C421.18,95.68,424.15,96.66,425.64,99.2z"/>
		
			<linearGradient id="SVGID_00000134930814656906772720000003031513431640037783_" gradientUnits="userSpaceOnUse" x1="326.3312" y1="237.3724" x2="353.5991" y2="237.3724">
			<stop  offset="0" style="stop-color:#FF9900"/>
			<stop  offset="1" style="stop-color:#FDEE07"/>
		</linearGradient>
		<polygon style="fill:url(#SVGID_00000134930814656906772720000003031513431640037783_);" points="336.67,240.43 339.97,251.01 
			343.26,240.43 353.6,237.37 343.26,234.31 339.97,223.74 336.67,234.31 326.33,237.37 		"/>
		
			<linearGradient id="SVGID_00000090292130414327951650000006353601616274596029_" gradientUnits="userSpaceOnUse" x1="319.7025" y1="203.2145" x2="278.4892" y2="133.4093">
			<stop  offset="0" style="stop-color:#FDEE07"/>
			<stop  offset="1" style="stop-color:#FF9900"/>
		</linearGradient>
		<path style="fill:url(#SVGID_00000090292130414327951650000006353601616274596029_);" d="M275.91,130.35
			c-2.52,36.9,48.44,67.49,48.44,67.49s-9.15-2.4-19.97-6.98c11.89,5.31,22.53,8.1,22.53,8.1s-53.11-31.88-48.22-69.81
			C278.7,129.15,277.69,129.55,275.91,130.35z"/>
		
			<linearGradient id="SVGID_00000128486898062975606540000008958365511547465653_" gradientUnits="userSpaceOnUse" x1="311.4104" y1="263.1837" x2="277.9245" y2="173.287">
			<stop  offset="0" style="stop-color:#FDEE07"/>
			<stop  offset="1" style="stop-color:#FF9900"/>
		</linearGradient>
		<path style="fill:url(#SVGID_00000128486898062975606540000008958365511547465653_);" d="M277.11,173.89
			c-0.9-0.93-1.75-1.89-2.52-2.87c0,0-3.44,55,49.55,101.23c0.27-0.15,0.53-0.3,0.8-0.45C279.24,230.78,277.06,183.49,277.11,173.89
			z"/>
		
			<linearGradient id="SVGID_00000008863504143757040020000016789777858297101964_" gradientUnits="userSpaceOnUse" x1="337.8351" y1="199.0715" x2="464.5572" y2="199.0715">
			<stop  offset="0" style="stop-color:#FDEE07"/>
			<stop  offset="1" style="stop-color:#FF9900"/>
		</linearGradient>
		<path style="fill:url(#SVGID_00000008863504143757040020000016789777858297101964_);" d="M454.92,137.07
			c-21.11,60.52-62.73,111.86-117.09,145.08c0.72,0.46,1.44,0.92,2.17,1.37c61.48-37.43,106.75-98.02,124.56-168.88
			C461.64,122.27,458.41,129.74,454.92,137.07z"/>
		
			<linearGradient id="SVGID_00000122688408040951430090000000852789693680611979_" gradientUnits="userSpaceOnUse" x1="221.7262" y1="122.9768" x2="273.1754" y2="122.9768">
			<stop  offset="0" style="stop-color:#FDEE07"/>
			<stop  offset="1" style="stop-color:#FF9900"/>
		</linearGradient>
		<path style="fill:url(#SVGID_00000122688408040951430090000000852789693680611979_);" d="M270.18,107.81
			c-3.46,1.65-27.88,13.46-48.45,27.95c0.27,0.79,0.52,1.59,0.79,2.38c22.52-16.22,50.66-29.42,50.66-29.42
			C272.19,108.46,271.19,108.15,270.18,107.81z"/>
		
			<linearGradient id="SVGID_00000179623803729075965600000003569332799928297861_" gradientUnits="userSpaceOnUse" x1="245.6785" y1="100.2824" x2="263.6376" y2="100.2824">
			<stop  offset="0" style="stop-color:#FDEE07"/>
			<stop  offset="1" style="stop-color:#FF9900"/>
		</linearGradient>
		<path style="fill:url(#SVGID_00000179623803729075965600000003569332799928297861_);" d="M263.64,105.19
			c-9.23-4.2-17.41-9.82-17.41-9.82s-0.19,0.07-0.55,0.21C249.05,97.74,256.22,102.11,263.64,105.19z"/>
		<g>
			
				<linearGradient id="SVGID_00000115480946063079029340000007840675417118033833_" gradientUnits="userSpaceOnUse" x1="282.332" y1="73.6324" x2="320.0558" y2="43.5713">
				<stop  offset="0" style="stop-color:#FF9900"/>
				<stop  offset="1" style="stop-color:#FDEE07"/>
			</linearGradient>
			<path style="fill:url(#SVGID_00000115480946063079029340000007840675417118033833_);" d="M250.93,78.79
				c24.44-1.69,46.7-6.34,64.59-16.95l-8.8-1.37c7.18-2.68,15.18-4.39,23.53-5.15c-9.34,0.62-18.31,2.39-26.27,5.36l8.8,1.37
				C295.57,72.26,274.3,76.94,250.93,78.79z"/>
			
				<linearGradient id="SVGID_00000042704581438394519620000015452730387639357599_" gradientUnits="userSpaceOnUse" x1="404.8349" y1="105.6022" x2="411.3564" y2="100.4054">
				<stop  offset="0" style="stop-color:#FF9900"/>
				<stop  offset="1" style="stop-color:#FDEE07"/>
			</linearGradient>
			<path style="fill:url(#SVGID_00000042704581438394519620000015452730387639357599_);" d="M396.76,102.46
				c0.16,0.48,0.34,0.94,0.53,1.39c6.48,2.16,12.77,3.05,18.82,2.35C409.89,106.43,403.42,105.07,396.76,102.46z"/>
			
				<linearGradient id="SVGID_00000091695556629763551800000000067738837726007721_" gradientUnits="userSpaceOnUse" x1="399.4614" y1="71.3444" x2="400.652" y2="70.3957">
				<stop  offset="0" style="stop-color:#FF9900"/>
				<stop  offset="1" style="stop-color:#FDEE07"/>
			</linearGradient>
			<path style="fill:url(#SVGID_00000091695556629763551800000000067738837726007721_);" d="M403.48,75.35
				c-1.11-2.27-2.42-4.45-4.02-6.48c-1.35-0.53-2.72-1.02-4.12-1.46c1.16,1.28,2.18,2.64,3.09,4.05
				C400.19,72.69,401.88,73.99,403.48,75.35z"/>
			
				<linearGradient id="SVGID_00000008110293903843123070000017818851199424152757_" gradientUnits="userSpaceOnUse" x1="388.9576" y1="85.772" x2="391.6809" y2="83.6019">
				<stop  offset="0" style="stop-color:#FF9900"/>
				<stop  offset="1" style="stop-color:#FDEE07"/>
			</linearGradient>
			<path style="fill:url(#SVGID_00000008110293903843123070000017818851199424152757_);" d="M379.72,77.4
				c5.27,5.77,10.96,11.17,17.03,16.22c0.99-0.03,1.98-0.04,2.96-0.01c-6.66-5.53-12.89-11.45-18.58-17.84
				C380.44,75.96,380.01,76.58,379.72,77.4z"/>
			
				<linearGradient id="SVGID_00000059992526562757629330000001941770796482945179_" gradientUnits="userSpaceOnUse" x1="361.863" y1="74.9501" x2="369.0551" y2="69.2188">
				<stop  offset="0" style="stop-color:#FF9900"/>
				<stop  offset="1" style="stop-color:#FDEE07"/>
			</linearGradient>
			<path style="fill:url(#SVGID_00000059992526562757629330000001941770796482945179_);" d="M376.71,78.62
				c-7.68-5.56-16.82-9.14-27.18-11.08l0.35,0.87c10.16,2.28,19.09,6.21,26.48,12.22C376.46,79.94,376.57,79.25,376.71,78.62z"/>
			
				<linearGradient id="SVGID_00000121249341196271173700000000218029825429518490_" gradientUnits="userSpaceOnUse" x1="381.7986" y1="105.6392" x2="394.03" y2="95.8923">
				<stop  offset="0" style="stop-color:#FF9900"/>
				<stop  offset="1" style="stop-color:#FDEE07"/>
			</linearGradient>
			<path style="fill:url(#SVGID_00000121249341196271173700000000218029825429518490_);" d="M370.79,99.73
				c0,0,1.29,9.95,15.65,14.92c-2.61,0.71-5.22,1.19-7.81,1.46c3.47-0.17,7-0.71,10.54-1.67c-14.36-4.97-15.65-14.92-15.65-14.92
				c5.94-2.92,12.51-4.9,19.18-5.62C385.11,94.32,377.54,96.42,370.79,99.73z"/>
			
				<linearGradient id="SVGID_00000102508246857580624510000006125968992234132890_" gradientUnits="userSpaceOnUse" x1="369.4888" y1="135.3804" x2="381.174" y2="126.0688">
				<stop  offset="0" style="stop-color:#FF9900"/>
				<stop  offset="1" style="stop-color:#FDEE07"/>
			</linearGradient>
			<path style="fill:url(#SVGID_00000102508246857580624510000006125968992234132890_);" d="M356.83,129.31
				c-2.11-0.89-4.06-1.97-5.71-3.24c8.28,11.65,27.42,16.04,41.89,14.52C380.53,141.24,365.49,137.74,356.83,129.31z"/>
			
				<linearGradient id="SVGID_00000140694272024975421460000005008842199268552085_" gradientUnits="userSpaceOnUse" x1="420.4521" y1="87.0757" x2="423.731" y2="84.4628">
				<stop  offset="0" style="stop-color:#FF9900"/>
				<stop  offset="1" style="stop-color:#FDEE07"/>
			</linearGradient>
			<path style="fill:url(#SVGID_00000140694272024975421460000005008842199268552085_);" d="M415.87,84.74
				c0.04,0.21,0.09,0.41,0.13,0.62c3.49,0.58,7.05,1.49,10.69,2.72c-0.46-0.5-0.93-0.99-1.4-1.47
				C422.1,85.73,418.95,85.09,415.87,84.74z"/>
			
				<linearGradient id="SVGID_00000141413165614543491570000002546993516275597218_" gradientUnits="userSpaceOnUse" x1="364.5015" y1="118.8427" x2="376.1924" y2="109.5266">
				<stop  offset="0" style="stop-color:#FF9900"/>
				<stop  offset="1" style="stop-color:#FDEE07"/>
			</linearGradient>
			<path style="fill:url(#SVGID_00000141413165614543491570000002546993516275597218_);" d="M375.37,131.94
				c6.33-0.22,11.88-2.16,14.09-6.09c-29.03-0.54-37.7-11.39-40.22-16.79c-1.29-0.86-2.54-1.78-3.73-2.79
				c0,0,2.51,19.07,41.22,19.79C384.84,129.41,380.53,131.32,375.37,131.94z"/>
			
				<linearGradient id="SVGID_00000003815080423436449080000011628548149461517197_" gradientUnits="userSpaceOnUse" x1="316.1544" y1="73.4577" x2="320.6709" y2="69.8586">
				<stop  offset="0" style="stop-color:#FF9900"/>
				<stop  offset="1" style="stop-color:#FDEE07"/>
			</linearGradient>
			<path style="fill:url(#SVGID_00000003815080423436449080000011628548149461517197_);" d="M319.53,68.3c-1,0.49-2,0.94-3,1.41
				l-1.68,7.44c1.02-0.6,2.04-1.14,3.06-1.66L319.53,68.3z"/>
			
				<linearGradient id="SVGID_00000116916818919230957920000006790833318761230512_" gradientUnits="userSpaceOnUse" x1="340.5866" y1="74.031" x2="346.0215" y2="69.7001">
				<stop  offset="0" style="stop-color:#FF9900"/>
				<stop  offset="1" style="stop-color:#FDEE07"/>
			</linearGradient>
			<path style="fill:url(#SVGID_00000116916818919230957920000006790833318761230512_);" d="M349.11,73.43
				c-5.29-2.12-10.57-2.79-15.83-2.14c5.51-0.2,11.02,1.04,16.56,3.93L349.11,73.43z"/>
			
				<linearGradient id="SVGID_00000122713942649820557930000011638958253753469860_" gradientUnits="userSpaceOnUse" x1="262.3786" y1="89.3435" x2="273.9118" y2="80.1529">
				<stop  offset="0" style="stop-color:#FF9900"/>
				<stop  offset="1" style="stop-color:#FDEE07"/>
			</linearGradient>
			<path style="fill:url(#SVGID_00000122713942649820557930000011638958253753469860_);" d="M246.28,79.12
				c-0.92,0.06-1.84,0.12-2.76,0.17c0,0,8.81,12.36,42.79,16.09c-0.69-0.27-1.35-0.54-2.01-0.82
				C255.28,90.41,246.82,79.84,246.28,79.12z"/>
		</g>
		<g>
			
				<linearGradient id="SVGID_00000039824139750388343270000004874665553460614294_" gradientUnits="userSpaceOnUse" x1="428.0937" y1="130.944" x2="432.0085" y2="130.944">
				<stop  offset="0" style="stop-color:#FF9900"/>
				<stop  offset="1" style="stop-color:#FDEE07"/>
			</linearGradient>
			<path style="fill:url(#SVGID_00000039824139750388343270000004874665553460614294_);" d="M432.01,129.59
				c-1.06,0.91-2.33,1.75-3.91,2.45c0,0,0.11,0.1,0.3,0.25C429.87,131.49,431.06,130.57,432.01,129.59z"/>
			
				<linearGradient id="SVGID_00000045612574977374895280000012252655056379214003_" gradientUnits="userSpaceOnUse" x1="418.9787" y1="124.6147" x2="432.2706" y2="124.6147">
				<stop  offset="0" style="stop-color:#FF9900"/>
				<stop  offset="1" style="stop-color:#FDEE07"/>
			</linearGradient>
			<path style="fill:url(#SVGID_00000045612574977374895280000012252655056379214003_);" d="M420.07,128.13
				c0.63-8.92,6.32-10.19,10.06-15.8c-0.06-0.32-0.11-0.52-0.11-0.52c-3.66,6.87-10.24,7.58-10.92,17.21
				c-1.27,7.76,7.13,11.37,13.16,5.46c-0.03,0-0.05,0-0.08,0C426.28,139.06,418.87,135.46,420.07,128.13z"/>
			
				<linearGradient id="SVGID_00000029726227658768575650000013224398351243495319_" gradientUnits="userSpaceOnUse" x1="434.2563" y1="120.207" x2="435.8353" y2="120.207">
				<stop  offset="0" style="stop-color:#FF9900"/>
				<stop  offset="1" style="stop-color:#FDEE07"/>
			</linearGradient>
			<path style="fill:url(#SVGID_00000029726227658768575650000013224398351243495319_);" d="M435.84,119.66
				c-0.01-0.33-0.03-0.53-0.03-0.53c-0.45,0.84-0.98,1.55-1.55,2.15C434.81,120.83,435.34,120.29,435.84,119.66z"/>
		</g>
	</g>
</g>
<linearGradient id="SVGID_00000119828776997206926500000010873321604453242510_" gradientUnits="userSpaceOnUse" x1="394.4042" y1="22.8463" x2="243.5238" y2="93.214">
	<stop  offset="0" style="stop-color:#FDEE07"/>
	<stop  offset="1" style="stop-color:#FF9900"/>
</linearGradient>
<path style="fill:url(#SVGID_00000119828776997206926500000010873321604453242510_);" d="M443.35,37.52
	c-23.76-10.1-49.73-15.99-77-16.71c-1.91-0.04-3.81-0.08-5.72-0.08c-0.03,0-0.05,0-0.08,0c-1.94,0-3.88,0.05-5.82,0.08
	c-47.96,1.31-91.92,18.58-126.8,46.67c0.37,10.81,1.39,21.48,2.99,31.98c0.79-0.35,1.54-0.67,2.27-0.98
	c-1.42-9.83-2.36-19.79-2.7-29.88c34.88-28.09,78.84-45.36,126.8-46.67c1.94-0.04,3.88-0.08,5.82-0.08c0.03,0,0.05,0,0.08,0
	c1.91,0,3.81,0.04,5.72,0.08c27.27,0.72,53.24,6.61,77,16.71c-7.59-4.39-15.48-8.32-23.62-11.76
	C429.52,30.04,436.56,33.59,443.35,37.52z"/>
</svg>
